<?xml version="1.0" encoding="utf-8"?>
<!-- Generator: Adobe Illustrator 19.2.1, SVG Export Plug-In . SVG Version: 6.00 Build 0)  -->
<svg version="1.1" id="layer" xmlns="http://www.w3.org/2000/svg" xmlns:xlink="http://www.w3.org/1999/xlink" x="0px" y="0px"
	 viewBox="0 0 652 652" style="enable-background:new 0 0 652 652;" xml:space="preserve">
<style type="text/css">
	.st0{fill:#263237;}
</style>
<path class="st0" d="M188.6,319.1c6.8,0,11-3.8,11-9.6c0-6-4.2-9.9-11-9.9h-11.4v19.5H188.6z M177.2,326.1v23.2h-7.9v-56.8H190
	c10.5,0,17.6,7.3,17.6,16.8c0,9.6-7.1,16.8-17.6,16.8H177.2z M230.2,349.4c-9,0-14.4-6.7-14.4-15.5v-24.3h7.5v23.2
	c0,5.3,2.4,9.9,8.7,9.9c6.1,0,9.1-4,9.1-9.9v-23.2h7.5V341c0,3,0.2,5.8,0.4,7.1h-7.2c-0.2-0.9-0.3-3-0.3-4.6
	C239.5,347.5,234.7,349.4,230.2,349.4 M266.7,335.8c0.5,4,3.5,7.2,9,7.2c4.2,0,6.6-2.4,6.6-5.1c0-2.4-1.8-4.2-5-5l-6.6-1.4
	c-6-1.3-9.6-5.4-9.6-10.8c0-6.6,6.2-12.2,13.7-12.2c10.6,0,13.9,6.9,14.7,10.3l-6.7,2.5c-0.3-2-1.9-6.4-8-6.4
	c-3.8,0-6.4,2.5-6.4,5.1c0,2.3,1.4,4,4.4,4.6l6.3,1.4c7,1.5,10.7,5.8,10.7,11.5c0,5.5-4.6,11.9-14.1,11.9
	c-10.6,0-15.1-6.8-15.7-11.2L266.7,335.8z M309,349.1h-7.5v-58h7.5v24c2.8-4.1,7.3-5.6,11.7-5.6c9.2,0,13.8,6.7,13.8,15.2v24.5h-7.5
	v-23.2c0-5.4-2.2-9.7-9-9.7c-5.8,0-8.8,4.5-9,10.2V349.1z M391.7,342.1c10.5,0,19.3-7.1,19.3-21.3c0-14.3-8.7-21.6-19.2-21.6H380
	v42.9H391.7z M372.2,349v-56.8h19.9c14.4,0,27,9.9,27,28.5c0,18.6-12.7,28.3-27.2,28.3H372.2z M460.4,328.9c0-8.9-5.6-13.7-12-13.7
	c-6.4,0-12,4.8-12,13.7c0,9,5.6,13.8,12,13.8C454.8,342.7,460.4,337.8,460.4,328.9 M468.1,328.9c0,11.8-8.2,20.5-19.7,20.5
	c-11.5,0-19.7-8.7-19.7-20.5c0-11.7,8.2-20.4,19.7-20.4C459.9,308.4,468.1,317.2,468.1,328.9 M484.8,328.9c0,8.8,5.5,13.5,11.8,13.5
	c7.2,0,9.9-4.9,10.7-7.9l6.7,2.9c-1.8,5.5-7.4,12-17.4,12c-11.2,0-19.5-8.8-19.5-20.5c0-12,8.4-20.4,19.4-20.4
	c10.3,0,15.6,6.4,17.2,12.3l-6.8,2.9c-1-3.8-3.8-8.2-10.3-8.2C490.4,315.4,484.8,319.9,484.8,328.9 M535.4,310.2h8.3v6.8h-8.3v20
	c0,3.5,1.4,5.3,5.4,5.3c1,0,2.3-0.2,3-0.3v6.4c-0.6,0.2-2.6,0.7-5.1,0.7c-6.6,0-10.7-4-10.7-11v-21.2h-7.4v-6.8h2.1
	c4.2,0,5.9-2.6,5.9-5.9v-6.3h6.9V310.2z M584.9,328.9c0-8.9-5.6-13.7-12-13.7c-6.4,0-12,4.8-12,13.7c0,9,5.6,13.8,12,13.8
	C579.3,342.7,584.9,337.8,584.9,328.9 M592.6,328.9c0,11.8-8.2,20.5-19.7,20.5c-11.5,0-19.7-8.7-19.7-20.5
	c0-11.7,8.2-20.4,19.7-20.4C584.5,308.4,592.6,317.2,592.6,328.9 M623,317.9c-1.1-0.2-2.2-0.2-3.3-0.2c-6.3,0-10.6,3.4-10.6,11.9
	v19.3h-7.5v-38.6h7.4v6.7c2.8-5.9,7.6-7.4,11.5-7.4c1,0,2.1,0.2,2.5,0.2V317.9z M56.1,358.6l-26.8-26.8l50.9-50.9l26.7,26.7
	c0,0,22.2,22.2,0.2,44.1c-22.5,22.5-44.7,0.3-44.7,0.3l-20.3-20.3l38.1-38.1l20.3,20.3c0,0,15.8,15.8-0.1,31.7
	c-15.9,15.9-31.9-0.2-31.9-0.2l-13.7-13.7l25.4-25.4l13.9,13.9c0.2,0.2,9.4,9.4,0.2,18.7c-9.8,9.8-19.3,0.2-19.3,0.2
	c-2.1-2.1-7.4-7.4-7.4-7.4l3.2-3.2c0,0,5.4,5.4,7.5,7.5c0,0,6.3,6.3,12.9-0.3c6-6-0.2-12.2-0.2-12.3l-10.7-10.7l-19,19l10.5,10.5
	c0,0,12.8,12.8,25.5,0.2c12.7-12.7,0-25.4,0-25.4l-17-17l-31.7,31.7l17.1,17.1c0,0,19,19,38.3-0.3c18.8-18.8-0.2-37.8-0.2-37.8
	l-23.4-23.4l-44.5,44.5l23.6,23.6c0,0,25.2,25.2,50.7-0.3c25.3-25.3,0.2-50.5,0.2-50.5l-30.1-30.1l-54,54l-3.2-3.2l57.2-57.2
	l33.3,33.3c0,0,28.3,28.3-0.2,56.8C84.5,387,57,359.4,56.1,358.6"/>
</svg>
